<?xml version="1.0" encoding="UTF-8"?>
<!-- Generator: Adobe Illustrator 16.0.0, SVG Export Plug-In . SVG Version: 6.00 Build 0)  -->
<!DOCTYPE svg PUBLIC "-//W3C//DTD SVG 1.1//EN" "http://www.w3.org/Graphics/SVG/1.1/DTD/svg11.dtd">
<svg version="1.1" id="Layer_1" xmlns="http://www.w3.org/2000/svg" xmlns:xlink="http://www.w3.org/1999/xlink" x="0px" y="0px" width="512px" height="512px" viewBox="0 0 512 512" enable-background="new 0 0 512 512" xml:space="preserve">
<path d="M480,0H32C14.313,0,0,14.328,0,32v448c0,17.688,14.313,32,32,32h448c17.688,0,32-14.313,32-32V32  C512,14.328,497.688,0,480,0z M96,480H32v-64h64V480z M96,352H32v-64h64V352z M96,224H32v-64h64V224z M96,96H32V32h64V96z M384,480  H128V288h256V480z M384,224H128V32h256V224z M480,480h-64v-64h64V480z M480,352h-64v-64h64V352z M480,224h-64v-64h64V224z M480,96  h-64V32h64V96z"/>
</svg>